# xmcd
#
# Track frame offsets:
#	150
#	22744
#	41221
#	62538
#	80595
#	104019
#	122433
#	141854
#	157927
#	178544
#	198965
#	215038
#	249585
#
# Disc length: 4166 seconds
# Revision: 2
# Processed by: cddbd v1.5.2PL0 Copyright (c) Steve Scherf et al.
# Submitted via: dBpowerAMP V12.0
#
DISCID=af10440d
DTITLE=Sergej Cetkovic - www.radiodak.rs
DYEAR=2007
DGENRE=Pop
TTITLE0=Pola moga sveta
TTITLE1=Bicu tu
TTITLE2=Ako Boga znas
TTITLE3=I da znam gdje
TTITLE4=Kad bi htela ti
TTITLE5=Ako te nije pronasla ljubav
TTITLE6=Nije istina
TTITLE7=Ne zaboravi
TTITLE8=Znao sam sve
TTITLE9=Ljubav nema nista s tim
TTITLE10=Nije moja noc
TTITLE11=Oprosti
TTITLE12=DATA
EXTD=
EXTT0=
EXTT1=
EXTT2=
EXTT3=
EXTT4=
EXTT5=
EXTT6=
EXTT7=
EXTT8=
EXTT9=
EXTT10=
EXTT11=
EXTT12=
PLAYORDER=
